# xmcd
#
# Track frame offsets:
# 150
# 70539
# 73736
# 161670
#
# Disc length: 3308 seconds
#
# Revision: 0
# Processed by: cddbd v1.5.2PL0 Copyright (c) Steve Scherf et al.
# Submitted via: Audion 3.0.2 (http://www.panic.com/audion/)
#
DISCID=300cea04
DTITLE=Steps Ahead Hamburg 29.3.84 - Steps Ahead Hamburg 29.3.84
DYEAR=1900
DGENRE=
TTITLE0=1
TTITLE1=2
TTITLE2=3
TTITLE3=4
EXTD=
EXTT0=
EXTT1=
EXTT2=
EXTT3=
PLAYORDER=
